<svg xmlns="http://www.w3.org/2000/svg" width="800" height="1000" viewBox="0 0 800 1000" role="img" aria-label="Indian astrologer profile portrait">
  <rect width="800" height="1000" fill="#efe6d4"/>
  <circle cx="400" cy="300" r="260" fill="#d4af37" opacity=".22"/>
  <path d="M206 818c52-176 336-176 388 0z" fill="#fff9ef"/>
  <path d="M250 828c25-130 275-130 300 0z" fill="#d9a441"/>
  <path d="M245 255c47-102 235-120 307 0 17 49 3 98-24 128-70-44-178-46-258-2-28-31-38-78-25-126z" fill="#392217"/>
  <ellipse cx="400" cy="398" rx="132" ry="153" fill="#a76337"/>
  <path d="M288 356c65-38 150-38 223 2 8 94-38 170-111 170-70 0-116-76-112-172z" fill="#bd7c4d"/>
  <circle cx="350" cy="407" r="12" fill="#21130e"/><circle cx="454" cy="407" r="12" fill="#21130e"/>
  <path d="M366 469c22 16 48 16 70 0" fill="none" stroke="#5c2b1e" stroke-width="10" stroke-linecap="round"/>
  <path d="M318 316c55-64 126-70 185 0-51-20-119-21-185 0z" fill="#ede0c0"/>
  <path d="M329 548c43 36 104 36 143 0 1 55-24 95-72 95-47 0-73-40-71-95z" fill="#32251e"/>
  <circle cx="400" cy="332" r="14" fill="#bf1d1d"/>
</svg>
