<svg xmlns="http://www.w3.org/2000/svg" width="800" height="1000" viewBox="0 0 800 1000" role="img" aria-label="Indian astrologer profile portrait">
  <rect width="800" height="1000" fill="#efe7d5"/>
  <circle cx="400" cy="302" r="248" fill="#d4af37" opacity=".25"/>
  <path d="M205 840c45-190 345-190 390 0z" fill="#fbf5e8"/>
  <path d="M252 836c28-138 268-138 296 0z" fill="#8f2f53"/>
  <path d="M264 268c52-112 238-118 286 8 28 84 8 219-45 281-84-55-130-55-210 0-51-62-62-217-31-289z" fill="#2a1a14"/>
  <ellipse cx="400" cy="415" rx="124" ry="150" fill="#a9653e"/>
  <path d="M292 370c70-47 146-46 216 1 7 103-39 177-108 177-68 0-114-74-108-178z" fill="#c27c4a"/>
  <circle cx="350" cy="423" r="11" fill="#25150f"/><circle cx="450" cy="423" r="11" fill="#25150f"/>
  <path d="M367 487c22 16 46 16 68 0" fill="none" stroke="#6c3424" stroke-width="9" stroke-linecap="round"/>
  <circle cx="400" cy="355" r="12" fill="#b51414"/>
  <path d="M333 576c39 30 96 30 134 0 1 48-23 82-67 82s-68-34-67-82z" fill="#1f1512"/>
  <path d="M325 338c38-35 112-35 150 0-46-14-95-14-150 0z" fill="#f2d47e"/>
</svg>
